<?xml version="1.0" encoding="utf-8"?>
<!-- Generator: Adobe Illustrator 19.2.1, SVG Export Plug-In . SVG Version: 6.00 Build 0)  -->
<svg version="1.1" id="Layer_1" xmlns="http://www.w3.org/2000/svg" xmlns:xlink="http://www.w3.org/1999/xlink" x="0px" y="0px"
	 viewBox="0 0 342.1 276" style="enable-background:new 0 0 342.1 276;" xml:space="preserve">
<style type="text/css">
	.st0{fill:#A5A5A5;}
	.st1{fill:#FFFFFF;}
	.st2{clip-path:url(#SVGID_2_);}
	.st3{fill:#69C3E2;}
	.st4{fill:#EACD1F;}
	.st5{fill:#DF5851;}
	.st6{clip-path:url(#SVGID_4_);}
	.st7{clip-path:url(#SVGID_6_);fill:#E0E0E0;}
</style>
<title>gaslight-logo--primary-white</title>
<circle class="st0" cx="168.7" cy="138.5" r="130"/>
<circle class="st1" cx="168.7" cy="138.5" r="117.2"/>
<polygon class="st1" points="131.3,138.5 131.4,138.6 168.7,175.9 206,138.6 168.6,101.1 "/>
<g>
	<defs>
		<path id="SVGID_1_" d="M285.7,132.1c-3.3-61.8-54.5-110.8-117.1-110.8S54.9,70.4,51.6,132.1H285.7z"/>
	</defs>
	<clipPath id="SVGID_2_">
		<use xlink:href="#SVGID_1_"  style="overflow:visible;"/>
	</clipPath>
	<g class="st2">
		
			<rect x="188.9" y="65.4" transform="matrix(0.7072 -0.707 0.707 0.7072 -12.1616 204.0598)" class="st3" width="102.8" height="102.7"/>
		<polygon class="st4" points="240.6,44.4 240.3,44.1 167.7,-28.5 95,44.2 167.9,117 		"/>
		<polygon class="st5" points="22.1,117.1 94.9,190 167.9,117 95,44.2 95,44.2 		"/>
	</g>
</g>
<g>
	<defs>
		<circle id="SVGID_3_" cx="168.7" cy="138.5" r="117.2"/>
	</defs>
	<clipPath id="SVGID_4_">
		<use xlink:href="#SVGID_3_"  style="overflow:visible;"/>
	</clipPath>
	<g class="st6">
		<rect x="34.7" y="131.8" class="st0" width="99.5" height="12.1"/>
		<rect x="203.1" y="131.8" class="st0" width="99.5" height="12.1"/>
	</g>
</g>
<g>
	<defs>
		<circle id="SVGID_5_" cx="168.7" cy="138.5" r="117.2"/>
	</defs>
	<clipPath id="SVGID_6_">
		<use xlink:href="#SVGID_5_"  style="overflow:visible;"/>
	</clipPath>
	<path class="st7" d="M168.8,135.7L65.7,238.8h39.9l63.3,63.3l63.3-63.3h39.8L168.8,135.7z M168.8,277.9l-25.3-25.3l25.3-25.3
		l25.3,25.3L168.8,277.9z M202,244.7l-33.1-33.1l-0.3,0.3l-32.8,32.9l-19.3-19.3l52.5-52.5l52.5,52.5L202,244.7z"/>
</g>
<circle class="st0" cx="168.7" cy="138.5" r="43.9"/>
<circle class="st1" cx="168.7" cy="138.5" r="32.2"/>
</svg>
