<?xml version="1.0" encoding="utf-8"?>
<!-- Generator: Adobe Illustrator 19.2.1, SVG Export Plug-In . SVG Version: 6.00 Build 0)  -->
<svg version="1.1" id="Layer_1" xmlns="http://www.w3.org/2000/svg" xmlns:xlink="http://www.w3.org/1999/xlink" x="0px" y="0px"
	 viewBox="0 0 342.1 347.4" style="enable-background:new 0 0 342.1 347.4;" xml:space="preserve">
<style type="text/css">
	.st0{fill:none;}
	.st1{fill:#DF5851;}
	.st2{fill:#EACD1F;}
	.st3{fill:#69C3E2;}
</style>
<title>gaslight-logo--primary-white</title>
<path d="M171.1,0L0,171.1h66.1l105,105l105-105h66L171.1,0z M171.1,235.8l-41.9-41.9l42-42l41.9,41.9L171.1,235.8z M226.1,180.8
	l-54.9-54.9l-0.5,0.5l-54.5,54.5l-32-32l87-87l87,87L226.1,180.8z"/>
<polygon class="st0" points="150.1,173 171.1,193.9 150.1,214.9 171.1,235.8 213.1,193.8 171.2,151.9 "/>
<polygon class="st0" points="84.1,148.9 116.2,180.9 170.6,126.4 171.2,125.9 226.1,180.8 258,148.9 171.1,61.9 "/>
<rect x="135.3" y="179.1" transform="matrix(0.7072 -0.707 0.707 0.7072 -93.162 162.9026)" class="st1" width="29.7" height="29.6"/>
<polygon class="st0" points="171.2,151.9 150.1,173 129.1,193.9 150,214.8 171,193.8 192,214.9 213.1,193.8 "/>
<polygon class="st0" points="84.1,148.9 116.2,180.9 170.6,126.4 171.2,125.9 226.1,180.8 258,148.9 171.1,61.9 "/>
<polygon class="st2" points="150,214.8 150.1,214.9 171.1,235.8 192,214.9 171,193.8 "/>
<polygon class="st0" points="84.1,148.9 116.2,180.9 170.6,126.4 171.2,125.9 226.1,180.8 258,148.9 171.1,61.9 "/>
<polygon class="st0" points="192.1,172.8 171.2,151.9 150.1,173 129.1,193.9 150,214.8 150.1,214.9 171.1,235.8 192,214.9 
	171,193.8 "/>
<polygon class="st3" points="213.1,193.8 192.1,172.8 171,193.8 192,214.9 192,214.9 "/>
</svg>
