<svg id="Layer_1" data-name="Layer 1" xmlns="http://www.w3.org/2000/svg" viewBox="0 0 342.11 276.07"><defs><style>.cls-1{fill:none;}.cls-2{fill:#df5851;}.cls-3{fill:#eacd1f;}.cls-4{fill:#69c3e2;}</style></defs><title>gaslight-logo</title><path d="M171.07,0L0,171.07H66.11l105,105,105-105h66Zm0,235.84-41.93-41.92,42-42,41.93,41.92Zm55-55L171.18,125.9l-0.54.53-54.48,54.5-32-32,87-87,87,87Z"/><polygon class="cls-1" points="150.11 172.96 171.07 193.9 150.1 214.88 171.07 235.84 213.1 193.81 171.17 151.9 150.11 172.96"/><polygon class="cls-1" points="84.11 148.88 116.16 180.93 170.64 126.43 171.17 125.9 226.08 180.81 258.02 148.88 171.07 61.92 84.11 148.88"/><rect class="cls-2" x="135.28" y="179.12" width="29.66" height="29.63" transform="translate(-93.16 162.9) rotate(-44.99)"/><polygon class="cls-1" points="171.17 151.9 150.11 172.96 129.14 193.93 150.03 214.81 171.01 193.84 192.04 214.87 213.1 193.81 171.17 151.9"/><polygon class="cls-1" points="84.11 148.88 116.16 180.93 170.64 126.43 171.17 125.9 226.08 180.81 258.02 148.88 171.07 61.92 84.11 148.88"/><polygon class="cls-3" points="150.03 214.81 150.1 214.88 171.07 235.84 192.04 214.87 171.01 193.84 150.03 214.81"/><polygon class="cls-1" points="84.11 148.88 116.16 180.93 170.64 126.43 171.17 125.9 226.08 180.81 258.02 148.88 171.07 61.92 84.11 148.88"/><polygon class="cls-1" points="192.07 172.79 171.17 151.9 150.11 172.96 129.14 193.93 150.03 214.81 150.1 214.88 171.07 235.84 192.04 214.87 171.01 193.84 192.07 172.79"/><polygon class="cls-4" points="213.1 193.81 192.07 172.79 171.01 193.84 192.04 214.87 192.04 214.87 213.1 193.81"/></svg>