<?xml version="1.0" encoding="utf-8"?>
<!-- Generator: Adobe Illustrator 19.2.1, SVG Export Plug-In . SVG Version: 6.00 Build 0)  -->
<svg version="1.1" id="Layer_1" xmlns="http://www.w3.org/2000/svg" xmlns:xlink="http://www.w3.org/1999/xlink" x="0px" y="0px"
	 viewBox="0 0 792 612" style="enable-background:new 0 0 792 612;" xml:space="preserve">
<style type="text/css">
	.st0{fill:#FFFFFF;}
</style>
<g id="yu9Zn7.tif">
	<g>
		<g>
			<path class="st0" d="M648.6,49.6c-90.9,178.9-181.7,357.9-273.2,538c-4.5-15.3-8.6-29.2-12.7-43.2c-12-40.5-24-81-35.8-121.6
				c-1-3.3-2.4-4.4-5.8-4.5c-41.8-1.2-79.3-14.4-112.2-40.2c-23.5-18.4-41.4-41.3-54.1-68.3c-0.6-1.2-1-2.4-1.7-4.2
				c30.6-16.5,61.1-33,91.6-49.5c13.9,34.3,38.3,54.1,75.2,54.9c32.2,0.7,57.2-14,72.1-42.6c15.6-30.1,11.1-59.2-9.2-86.3
				C468.2,131.9,558.9,92,648.6,49.6z M406,187.6c25.3,48.9,5,100.8-32.9,124.6c-19.2,12-40.2,17-62.6,14.3
				c-32.1-3.9-56.4-20.5-73.2-48.3c-21.2,11.5-42.1,22.8-63.1,34.1c0.9,1.7,1.5,2.9,2.2,4.1c17.9,30.9,43,54,75.1,69.5
				c25.7,12.4,53,17.4,81.4,16.8c3-0.1,5,0.1,6.1,3.9c9.1,31.6,18.5,63.2,27.8,94.8c4.1,13.9,8.2,27.9,12.8,43.1
				c78.3-154.2,155.9-307.1,233.6-460.1C542.7,116.9,472.4,148.5,406,187.6z"/>
			<path class="st0" d="M469.6,111.9c-3.9,2.1-7.3,4.1-10.8,6c-29.3,15.8-62.9,34.2-92.2,50.2c0,0-1-0.9-4.2-2.8
				c-47.4-28.3-107.8-1.9-119.2,52c-1,4.7-0.9,9.6-1.7,14.3c-0.3,1.8-0.2,3.6-0.2,3.6c-30.1,16.5-62.8,34.1-93,50.4
				c-0.6,0.3-1.2,0.5-2.8,1c-2-9.7-4.6-19-5.6-28.4c-8-73.8,18.2-133,78.3-176.4C253.1,56.6,293,46.6,336,48.4
				c25,1,49.3,4.8,72.5,14.6C433.2,73.4,453.4,89.5,469.6,111.9z M445.1,107.2C434.7,96,423.2,87.3,410,81.1
				c-36.6-17.3-75.2-20.8-114.6-14.3c-80.4,13.3-140.3,83.5-141.1,165c-0.1,10.2,1.1,20.4,1.8,31.4c2.8-1.4,4.4-2.2,6-3.1
				c19.8-10.7,64.3-35.1,64.3-35.1s-0.4-0.5,0.1-4.1c3.2-26.1,15.3-47.5,36.4-63.1c31-22.9,64.6-26,100-10.6c2,0.9,4.1,1.7,4.1,1.7
				C392,135.7,419.6,121,445.1,107.2z"/>
			<path class="st0" d="M385.2,231.4c1,34.2-27.3,63.3-62.5,64.2c-34.1,0.9-64.1-26.8-65.1-60c-1-35.9,25.9-65,61.3-66
				C355.1,168.6,384.2,195.7,385.2,231.4z M322.6,185.3c-25.1-1-47.9,19.6-48.9,44.3c-1.1,26.8,19.2,49.2,45.6,50.1
				c27,1,48.9-19.3,50-46.3C370.3,208.1,349.2,186.4,322.6,185.3z"/>
		</g>
	</g>
</g>
</svg>
